<svg width="183" height="31" viewBox="0 0 183 31" fill="none" xmlns="http://www.w3.org/2000/svg">
<path d="M2.0293 24.0575H0V10.8996H2.0293V16.6365H8.89153V10.8996H10.9208V24.0575H8.89153V18.0575H2.0293V24.0575Z" fill="#224CFF"/>
<path d="M16.7774 15.1891L14.935 14.6102C15.2376 13.2768 15.8695 12.2856 16.8308 11.6365C17.792 10.9698 19.0203 10.6365 20.5156 10.6365C22.2244 10.6365 23.4883 10.9874 24.3071 11.6891C25.126 12.3733 25.5354 13.4259 25.5354 14.847V22.4259H27.7516V24.0575H23.3459L23.5061 22.3996V20.6365L21.7171 23.2681C21.2721 23.6189 20.7559 23.8821 20.1684 24.0575C19.5988 24.2154 19.0114 24.2944 18.4062 24.2944C17.3559 24.2944 16.4837 23.9786 15.7894 23.347C15.0952 22.7154 14.7481 21.8295 14.7481 20.6891C14.7481 19.5838 15.0774 18.7944 15.736 18.3207C16.4125 17.8295 17.2046 17.461 18.1124 17.2154C19.0381 16.9698 19.9993 16.7505 20.9962 16.5575C22.0108 16.3645 22.8475 16.0049 23.5061 15.4786V14.9259C23.5061 14.0663 23.248 13.3909 22.7318 12.8996C22.2333 12.3909 21.4501 12.1365 20.3821 12.1365C19.2606 12.1365 18.4418 12.3909 17.9255 12.8996C17.4093 13.3909 17.0266 14.154 16.7774 15.1891ZM16.9109 20.3996C16.9109 21.154 17.1245 21.7417 17.5517 22.1628C17.9967 22.5663 18.5486 22.7681 19.2072 22.7681C20.0794 22.7681 20.8716 22.5137 21.5836 22.0049C22.3134 21.4961 22.9543 20.654 23.5061 19.4786V15.847C23.0255 16.4084 22.4114 16.8207 21.6637 17.0838C20.9161 17.3295 20.1862 17.5751 19.4742 17.8207C18.78 18.0488 18.1747 18.347 17.6585 18.7154C17.1601 19.0838 16.9109 19.6452 16.9109 20.3996Z" fill="#224CFF"/>
<path d="M30.0208 17.4786C30.0208 16.4786 30.1899 15.5575 30.5281 14.7154C30.8663 13.8733 31.3292 13.154 31.9166 12.5575C32.504 11.961 33.1983 11.4961 33.9993 11.1628C34.8181 10.8119 35.6904 10.6365 36.616 10.6365C38.0401 10.6365 39.2951 11.0224 40.3809 11.7944C41.4846 12.5663 42.1788 13.6014 42.4636 14.8996L40.5945 15.6102C40.3631 14.3996 39.8825 13.4961 39.1526 12.8996C38.4406 12.2856 37.5595 11.9786 36.5092 11.9786C35.281 11.9786 34.2663 12.4698 33.4653 13.4523C32.682 14.4172 32.2904 15.7593 32.2904 17.4786C32.2904 19.2154 32.6998 20.5663 33.5187 21.5312C34.3375 22.4786 35.3433 22.9523 36.5359 22.9523C37.604 22.9523 38.4851 22.6365 39.1793 22.0049C39.8736 21.3558 40.3453 20.4259 40.5945 19.2154L42.4636 19.9259C42.1966 21.2593 41.5113 22.3295 40.4076 23.1365C39.3218 23.9259 38.0579 24.3207 36.616 24.3207C35.6904 24.3207 34.8181 24.154 33.9993 23.8207C33.1983 23.4698 32.504 22.9961 31.9166 22.3996C31.3292 21.8031 30.8663 21.0838 30.5281 20.2417C30.1899 19.3996 30.0208 18.4786 30.0208 17.4786Z" fill="#224CFF"/>
<path d="M51.3697 24.0575H49.3404V12.3207H44.4808V10.8996H56.2294V12.3207H51.3697V24.0575Z" fill="#224CFF"/>
<path d="M60.1931 15.1891L58.3507 14.6102C58.6533 13.2768 59.2852 12.2856 60.2465 11.6365C61.2077 10.9698 62.436 10.6365 63.9312 10.6365C65.6401 10.6365 66.904 10.9874 67.7228 11.6891C68.5417 12.3733 68.9511 13.4259 68.9511 14.847V22.4259H71.1673V24.0575H66.7616L66.9218 22.3996V20.6365L65.1328 23.2681C64.6878 23.6189 64.1715 23.8821 63.5841 24.0575C63.0145 24.2154 62.4271 24.2944 61.8218 24.2944C60.7716 24.2944 59.8993 23.9786 59.2051 23.347C58.5109 22.7154 58.1638 21.8295 58.1638 20.6891C58.1638 19.5838 58.4931 18.7944 59.1517 18.3207C59.8281 17.8295 60.6203 17.461 61.5281 17.2154C62.4538 16.9698 63.415 16.7505 64.4119 16.5575C65.4265 16.3645 66.2631 16.0049 66.9218 15.4786V14.9259C66.9218 14.0663 66.6637 13.3909 66.1474 12.8996C65.649 12.3909 64.8658 12.1365 63.7977 12.1365C62.6763 12.1365 61.8574 12.3909 61.3412 12.8996C60.825 13.3909 60.4423 14.154 60.1931 15.1891ZM60.3266 20.3996C60.3266 21.154 60.5402 21.7417 60.9674 22.1628C61.4124 22.5663 61.9642 22.7681 62.6229 22.7681C63.4951 22.7681 64.2873 22.5137 64.9993 22.0049C65.7291 21.4961 66.3699 20.654 66.9218 19.4786V15.847C66.4412 16.4084 65.827 16.8207 65.0794 17.0838C64.3318 17.3295 63.6019 17.5751 62.8899 17.8207C62.1957 18.0488 61.5904 18.347 61.0742 18.7154C60.5758 19.0838 60.3266 19.6452 60.3266 20.3996Z" fill="#224CFF"/>
<path d="M85.0198 20.347C85.0198 21.54 84.5926 22.461 83.7382 23.1102C82.8837 23.7417 81.5754 24.0575 79.8131 24.0575H74.4194V10.8996H79.5728C81.2638 10.8996 82.4832 11.1891 83.2309 11.7681C83.9785 12.347 84.3523 13.1277 84.3523 14.1102C84.3523 14.7417 84.1743 15.3295 83.8183 15.8733C83.4801 16.3996 82.8926 16.8207 82.056 17.1365C83.124 17.3996 83.8806 17.8119 84.3256 18.3733C84.7884 18.9347 85.0198 19.5926 85.0198 20.347ZM79.6262 12.3207H76.4487V16.6628H79.8131C80.5785 16.6628 81.1837 16.4523 81.6288 16.0312C82.0916 15.5926 82.323 15.0488 82.323 14.3996C82.323 13.7154 82.1005 13.1979 81.6555 12.847C81.2104 12.4961 80.534 12.3207 79.6262 12.3207ZM79.8398 17.7417H76.4487V22.6365H79.733C80.801 22.6365 81.611 22.4435 82.1628 22.0575C82.7146 21.6716 82.9905 21.0575 82.9905 20.2154C82.9905 19.461 82.7146 18.8645 82.1628 18.4259C81.6288 17.9698 80.8544 17.7417 79.8398 17.7417Z" fill="#224CFF"/>
<path d="M90.373 24.0575H88.3437V10.8996H90.373V16.6365H97.2353V10.8996H99.2646V24.0575H97.2353V18.0575H90.373V24.0575Z" fill="#224CFF"/>
<path d="M105.575 24.0575H103.546V10.8996H105.575V21.5049L112.811 10.8996H114.84V24.0575H112.811V13.4523L105.575 24.0575Z" fill="#224CFF"/>
<path d="M128.058 24.0575L121.142 17.8207V24.0575H119.113V10.8996H121.142V16.8207L127.657 10.8996H130.114L123.145 17.1628L130.648 24.0575H128.058Z" fill="#224CFF"/>
<path d="M135.672 24.0575H133.055V21.5312H135.672V24.0575Z" fill="#224CFF"/>
<path d="M141.637 24.0575H139.608V10.8996H150.315V24.0575H148.286V12.3207H141.637V24.0575Z" fill="#224CFF"/>
<path d="M161.598 24.3207C160.352 24.3207 159.275 23.9435 158.367 23.1891C157.477 22.4172 156.89 21.3207 156.605 19.8996V30.6365H154.575V10.8996H156.605V15.0049C156.907 13.5838 157.495 12.5049 158.367 11.7681C159.257 11.0137 160.316 10.6365 161.544 10.6365C162.257 10.6365 162.951 10.7768 163.627 11.0575C164.304 11.3382 164.9 11.7593 165.416 12.3207C165.932 12.8645 166.342 13.5663 166.644 14.4259C166.965 15.2856 167.125 16.2944 167.125 17.4523C167.125 18.6102 166.965 19.6189 166.644 20.4786C166.342 21.3382 165.932 22.0575 165.416 22.6365C164.918 23.1979 164.33 23.6189 163.654 23.8996C162.995 24.1803 162.31 24.3207 161.598 24.3207ZM164.882 17.4786C164.882 16.5663 164.766 15.7768 164.535 15.1102C164.304 14.4259 164.001 13.8645 163.627 13.4259C163.253 12.9698 162.808 12.6365 162.292 12.4259C161.794 12.1979 161.269 12.0838 160.717 12.0838C159.542 12.0838 158.563 12.54 157.78 13.4523C157.014 14.3645 156.631 15.7067 156.631 17.4786C156.631 19.2505 157.023 20.6014 157.806 21.5312C158.59 22.461 159.595 22.9259 160.824 22.9259C161.909 22.9259 162.853 22.4786 163.654 21.5838C164.473 20.6716 164.882 19.3031 164.882 17.4786Z" fill="#224CFF"/>
<path d="M176.458 10.6365C177.366 10.6365 178.212 10.8031 178.995 11.1365C179.796 11.4698 180.49 11.9435 181.078 12.5575C181.683 13.154 182.154 13.8733 182.493 14.7154C182.831 15.5575 183 16.4786 183 17.4786C183 18.4786 182.831 19.3996 182.493 20.2417C182.154 21.0838 181.692 21.8119 181.104 22.4259C180.517 23.0224 179.823 23.4874 179.021 23.8207C178.22 24.154 177.366 24.3207 176.458 24.3207C175.55 24.3207 174.696 24.154 173.895 23.8207C173.094 23.4874 172.4 23.0224 171.812 22.4259C171.225 21.8119 170.753 21.0838 170.397 20.2417C170.059 19.3996 169.89 18.4786 169.89 17.4786C169.89 16.4786 170.059 15.5575 170.397 14.7154C170.753 13.8733 171.225 13.154 171.812 12.5575C172.4 11.9435 173.094 11.4698 173.895 11.1365C174.696 10.8031 175.55 10.6365 176.458 10.6365ZM176.485 12.0049C175.221 12.0049 174.18 12.4786 173.361 13.4259C172.56 14.3558 172.159 15.7067 172.159 17.4786C172.159 19.1277 172.56 20.4523 173.361 21.4523C174.18 22.4523 175.221 22.9523 176.485 22.9523C177.767 22.9523 178.79 22.4523 179.556 21.4523C180.339 20.4523 180.73 19.1277 180.73 17.4786C180.73 15.7067 180.339 14.3558 179.556 13.4259C178.79 12.4786 177.767 12.0049 176.485 12.0049Z" fill="#224CFF"/>
</svg>
